<svg width="1440" height="498" viewBox="0 0 1440 498" fill="none" xmlns="http://www.w3.org/2000/svg">
<g filter="url(#filter0_d_3370_16852)">
<rect x="1276" y="10" width="328" height="274" rx="20" fill="white"/>
<rect x="1308" y="98" width="180" height="24" rx="12" fill="#F8F8FE"/>
<rect x="1308" y="154" width="180" height="24" rx="12" fill="#F8F8FE"/>
<rect x="1308" y="210" width="180" height="24" rx="12" fill="#F8F8FE"/>
<path d="M1309.85 43.912H1317.26C1319.1 43.912 1320.54 44.36 1321.56 45.256C1322.58 46.136 1323.1 47.344 1323.1 48.88C1323.1 50.416 1322.58 51.632 1321.54 52.528C1320.51 53.424 1319.09 53.872 1317.26 53.872H1312.94V61H1309.85V43.912ZM1316.9 51.472C1317.98 51.472 1318.78 51.256 1319.33 50.824C1319.89 50.376 1320.17 49.736 1320.17 48.904C1320.17 48.056 1319.9 47.416 1319.35 46.984C1318.81 46.536 1317.99 46.312 1316.9 46.312H1312.94V51.472H1316.9ZM1336.88 48.88V61H1333.93V59.056C1333.56 59.728 1333.04 60.256 1332.35 60.64C1331.66 61.008 1330.88 61.192 1330 61.192C1328.94 61.192 1328 60.936 1327.19 60.424C1326.37 59.912 1325.74 59.184 1325.29 58.24C1324.84 57.296 1324.62 56.2 1324.62 54.952C1324.62 53.704 1324.84 52.6 1325.29 51.64C1325.76 50.664 1326.4 49.912 1327.21 49.384C1328.03 48.84 1328.96 48.568 1330 48.568C1330.88 48.568 1331.66 48.76 1332.35 49.144C1333.04 49.512 1333.56 50.032 1333.93 50.704V48.88H1336.88ZM1330.81 58.84C1331.8 58.84 1332.57 58.496 1333.12 57.808C1333.66 57.12 1333.93 56.152 1333.93 54.904C1333.93 53.624 1333.66 52.64 1333.12 51.952C1332.57 51.264 1331.8 50.92 1330.79 50.92C1329.8 50.92 1329.02 51.28 1328.46 52C1327.92 52.704 1327.64 53.688 1327.64 54.952C1327.64 56.2 1327.92 57.16 1328.46 57.832C1329.02 58.504 1329.8 58.84 1330.81 58.84ZM1346.8 48.592C1347.26 48.592 1347.66 48.656 1348 48.784L1347.97 51.52C1347.46 51.312 1346.93 51.208 1346.39 51.208C1345.37 51.208 1344.58 51.504 1344.04 52.096C1343.51 52.688 1343.25 53.472 1343.25 54.448V61H1340.27V52.312C1340.27 51.032 1340.21 49.888 1340.08 48.88H1342.89L1343.13 51.016C1343.43 50.232 1343.91 49.632 1344.57 49.216C1345.22 48.8 1345.97 48.592 1346.8 48.592ZM1361.15 48.88V61H1358.19V59.056C1357.83 59.728 1357.3 60.256 1356.61 60.64C1355.92 61.008 1355.14 61.192 1354.26 61.192C1353.2 61.192 1352.27 60.936 1351.45 60.424C1350.63 59.912 1350 59.184 1349.55 58.24C1349.11 57.296 1348.88 56.2 1348.88 54.952C1348.88 53.704 1349.11 52.6 1349.55 51.64C1350.02 50.664 1350.66 49.912 1351.47 49.384C1352.29 48.84 1353.22 48.568 1354.26 48.568C1355.14 48.568 1355.92 48.76 1356.61 49.144C1357.3 49.512 1357.83 50.032 1358.19 50.704V48.88H1361.15ZM1355.07 58.84C1356.07 58.84 1356.83 58.496 1357.38 57.808C1357.92 57.12 1358.19 56.152 1358.19 54.904C1358.19 53.624 1357.92 52.64 1357.38 51.952C1356.83 51.264 1356.06 50.92 1355.05 50.92C1354.06 50.92 1353.28 51.28 1352.72 52C1352.18 52.704 1351.91 53.688 1351.91 54.952C1351.91 56.2 1352.18 57.16 1352.72 57.832C1353.28 58.504 1354.07 58.84 1355.07 58.84ZM1378.84 48.568C1380.21 48.568 1381.24 48.984 1381.91 49.816C1382.58 50.632 1382.92 51.88 1382.92 53.56V61H1379.92V53.656C1379.92 52.696 1379.76 52.008 1379.44 51.592C1379.13 51.16 1378.62 50.944 1377.9 50.944C1377.07 50.944 1376.41 51.24 1375.93 51.832C1375.47 52.408 1375.24 53.208 1375.24 54.232V61H1372.24V53.656C1372.24 52.712 1372.07 52.024 1371.73 51.592C1371.41 51.16 1370.9 50.944 1370.2 50.944C1369.37 50.944 1368.71 51.24 1368.23 51.832C1367.75 52.408 1367.51 53.208 1367.51 54.232V61H1364.53V52.312C1364.53 51.032 1364.47 49.888 1364.34 48.88H1367.15L1367.37 50.8C1367.72 50.08 1368.22 49.528 1368.88 49.144C1369.55 48.76 1370.32 48.568 1371.18 48.568C1373.04 48.568 1374.25 49.336 1374.81 50.872C1375.19 50.152 1375.73 49.592 1376.44 49.192C1377.16 48.776 1377.96 48.568 1378.84 48.568ZM1396.85 55.096H1388.5C1388.56 56.392 1388.88 57.352 1389.46 57.976C1390.05 58.584 1390.92 58.888 1392.07 58.888C1393.4 58.888 1394.63 58.456 1395.77 57.592L1396.63 59.656C1396.06 60.12 1395.34 60.496 1394.5 60.784C1393.66 61.056 1392.82 61.192 1391.95 61.192C1389.97 61.192 1388.41 60.632 1387.27 59.512C1386.14 58.392 1385.57 56.856 1385.57 54.904C1385.57 53.672 1385.82 52.576 1386.31 51.616C1386.81 50.656 1387.5 49.912 1388.4 49.384C1389.3 48.84 1390.31 48.568 1391.45 48.568C1393.11 48.568 1394.42 49.112 1395.38 50.2C1396.36 51.272 1396.85 52.752 1396.85 54.64V55.096ZM1391.52 50.728C1390.72 50.728 1390.06 50.968 1389.55 51.448C1389.06 51.912 1388.74 52.592 1388.59 53.488H1394.23C1394.14 52.576 1393.86 51.888 1393.39 51.424C1392.94 50.96 1392.32 50.728 1391.52 50.728ZM1403.16 51.136V56.56C1403.16 57.984 1403.82 58.696 1405.15 58.696C1405.52 58.696 1405.92 58.632 1406.35 58.504V60.88C1405.82 61.072 1405.18 61.168 1404.43 61.168C1403.06 61.168 1402 60.784 1401.26 60.016C1400.53 59.248 1400.16 58.144 1400.16 56.704V51.136H1397.83V48.88H1400.16V45.928L1403.16 44.92V48.88H1406.38V51.136H1403.16ZM1419.17 55.096H1410.81C1410.88 56.392 1411.2 57.352 1411.77 57.976C1412.37 58.584 1413.24 58.888 1414.39 58.888C1415.72 58.888 1416.95 58.456 1418.09 57.592L1418.95 59.656C1418.37 60.12 1417.66 60.496 1416.81 60.784C1415.98 61.056 1415.13 61.192 1414.27 61.192C1412.29 61.192 1410.73 60.632 1409.59 59.512C1408.45 58.392 1407.89 56.856 1407.89 54.904C1407.89 53.672 1408.13 52.576 1408.63 51.616C1409.13 50.656 1409.82 49.912 1410.72 49.384C1411.61 48.84 1412.63 48.568 1413.77 48.568C1415.43 48.568 1416.74 49.112 1417.7 50.2C1418.68 51.272 1419.17 52.752 1419.17 54.64V55.096ZM1413.84 50.728C1413.04 50.728 1412.38 50.968 1411.87 51.448C1411.37 51.912 1411.05 52.592 1410.91 53.488H1416.55C1416.45 52.576 1416.17 51.888 1415.71 51.424C1415.26 50.96 1414.64 50.728 1413.84 50.728ZM1428.35 48.592C1428.82 48.592 1429.22 48.656 1429.55 48.784L1429.53 51.52C1429.02 51.312 1428.49 51.208 1427.95 51.208C1426.92 51.208 1426.14 51.504 1425.59 52.096C1425.07 52.688 1424.8 53.472 1424.8 54.448V61H1421.83V52.312C1421.83 51.032 1421.76 49.888 1421.63 48.88H1424.44L1424.68 51.016C1424.99 50.232 1425.47 49.632 1426.12 49.216C1426.78 48.8 1427.52 48.592 1428.35 48.592Z" fill="#333333"/>
</g>
<g filter="url(#filter1_d_3370_16852)">
<rect x="-164" y="122" width="328" height="226" rx="20" fill="white"/>
<rect x="-132" y="205" width="264" height="107" rx="20" fill="#F4F5FC"/>
<path d="M-76.496 270H-81.776L-84.688 262.416C-84.9227 261.819 -85.2853 261.403 -85.776 261.168C-86.2453 260.933 -86.8427 260.816 -87.568 260.816H-90.8V270H-95.728V247.216H-85.584C-82.9387 247.216 -80.9333 247.792 -79.568 248.944C-78.2027 250.096 -77.52 251.749 -77.52 253.904C-77.52 255.419 -77.9253 256.72 -78.736 257.808C-79.5253 258.896 -80.6667 259.675 -82.16 260.144C-80.816 260.421 -79.8453 261.349 -79.248 262.928L-76.496 270ZM-86.32 257.008C-84.8907 257.008 -83.8453 256.773 -83.184 256.304C-82.5227 255.813 -82.192 255.056 -82.192 254.032C-82.192 253.008 -82.5227 252.261 -83.184 251.792C-83.8453 251.301 -84.8907 251.056 -86.32 251.056H-90.864V257.008H-86.32ZM-63.3117 253.36C-61.9251 253.36 -60.6877 253.723 -59.5997 254.448C-58.5117 255.152 -57.6691 256.155 -57.0717 257.456C-56.4531 258.757 -56.1437 260.24 -56.1437 261.904C-56.1437 263.568 -56.4424 265.04 -57.0397 266.32C-57.6371 267.579 -58.4797 268.549 -59.5677 269.232C-60.6557 269.915 -61.9037 270.256 -63.3117 270.256C-64.4424 270.256 -65.4557 270.021 -66.3517 269.552C-67.2477 269.083 -67.9304 268.432 -68.3997 267.6V276.912H-73.2318V258.416C-73.2318 256.688 -73.3171 255.141 -73.4878 253.776H-68.9437L-68.6237 256.464C-68.1971 255.504 -67.5144 254.747 -66.5757 254.192C-65.6157 253.637 -64.5277 253.36 -63.3117 253.36ZM-64.6877 266.576C-63.4931 266.576 -62.5757 266.181 -61.9357 265.392C-61.2957 264.581 -60.9757 263.419 -60.9757 261.904C-60.9757 260.389 -61.3064 259.205 -61.9677 258.352C-62.6077 257.499 -63.5144 257.072 -64.6877 257.072C-65.8824 257.072 -66.8104 257.488 -67.4717 258.32C-68.1117 259.131 -68.4317 260.304 -68.4317 261.84C-68.4317 263.376 -68.1117 264.549 -67.4717 265.36C-66.8104 266.171 -65.8824 266.576 -64.6877 266.576ZM-37.1082 266V270H-52.7563V266.32L-45.1722 258.256C-43.5936 256.549 -42.8042 254.992 -42.8042 253.584C-42.8042 252.688 -43.0709 252.016 -43.6042 251.568C-44.1162 251.099 -44.8736 250.864 -45.8763 250.864C-47.8176 250.864 -49.8336 251.6 -51.9243 253.072L-53.5243 249.488C-52.6069 248.699 -51.4336 248.08 -50.0043 247.632C-48.5749 247.163 -47.1243 246.928 -45.6523 246.928C-43.2842 246.928 -41.4069 247.504 -40.0202 248.656C-38.6122 249.787 -37.9082 251.312 -37.9082 253.232C-37.9082 254.555 -38.1856 255.781 -38.7402 256.912C-39.2736 258.021 -40.1802 259.259 -41.4602 260.624L-46.6123 266H-37.1082ZM-28.6735 264.848V270H-33.8895V264.848H-28.6735ZM-15.9465 255.248C-14.5385 255.248 -13.2905 255.557 -12.2025 256.176C-11.0932 256.773 -10.2398 257.627 -9.6425 258.736C-9.02383 259.845 -8.7145 261.125 -8.7145 262.576C-8.7145 264.112 -9.07717 265.467 -9.8025 266.64C-10.5065 267.792 -11.5305 268.688 -12.8745 269.328C-14.1972 269.947 -15.7438 270.256 -17.5145 270.256C-18.9652 270.256 -20.4052 270.021 -21.8345 269.552C-23.2425 269.083 -24.3838 268.464 -25.2585 267.696L-23.6585 264.112C-21.6318 265.584 -19.5625 266.32 -17.4505 266.32C-14.7838 266.32 -13.4505 265.136 -13.4505 262.768C-13.4505 261.637 -13.8025 260.752 -14.5065 260.112C-15.1892 259.451 -16.1278 259.12 -17.3225 259.12C-18.0692 259.12 -18.8265 259.259 -19.5945 259.536C-20.3412 259.813 -21.0132 260.197 -21.6105 260.688H-24.4585V247.216H-9.8345V251.056H-19.5945V256.144C-18.5918 255.547 -17.3758 255.248 -15.9465 255.248ZM2.025 270.288C-0.726997 270.288 -2.839 269.285 -4.311 267.28C-5.76166 265.275 -6.487 262.373 -6.487 258.576C-6.487 254.821 -5.76166 251.952 -4.311 249.968C-2.839 247.984 -0.726997 246.992 2.025 246.992C4.777 246.992 6.87834 247.984 8.329 249.968C9.801 251.952 10.537 254.821 10.537 258.576C10.537 262.373 9.801 265.275 8.329 267.28C6.87834 269.285 4.777 270.288 2.025 270.288ZM2.025 266.448C3.28367 266.448 4.201 265.829 4.777 264.592C5.353 263.355 5.641 261.349 5.641 258.576C5.641 255.867 5.353 253.904 4.777 252.688C4.201 251.451 3.28367 250.832 2.025 250.832C0.766337 250.832 -0.150997 251.451 -0.726996 252.688C-1.303 253.904 -1.591 255.867 -1.591 258.576C-1.591 261.349 -1.303 263.355 -0.726996 264.592C-0.150997 265.829 0.766337 266.448 2.025 266.448ZM21.3725 270.288C18.6205 270.288 16.5085 269.285 15.0365 267.28C13.5858 265.275 12.8605 262.373 12.8605 258.576C12.8605 254.821 13.5858 251.952 15.0365 249.968C16.5085 247.984 18.6205 246.992 21.3725 246.992C24.1245 246.992 26.2258 247.984 27.6765 249.968C29.1485 251.952 29.8845 254.821 29.8845 258.576C29.8845 262.373 29.1485 265.275 27.6765 267.28C26.2258 269.285 24.1245 270.288 21.3725 270.288ZM21.3725 266.448C22.6312 266.448 23.5485 265.829 24.1245 264.592C24.7005 263.355 24.9885 261.349 24.9885 258.576C24.9885 255.867 24.7005 253.904 24.1245 252.688C23.5485 251.451 22.6312 250.832 21.3725 250.832C20.1138 250.832 19.1965 251.451 18.6205 252.688C18.0445 253.904 17.7565 255.867 17.7565 258.576C17.7565 261.349 18.0445 263.355 18.6205 264.592C19.1965 265.829 20.1138 266.448 21.3725 266.448ZM37.904 264.848V270H32.688V264.848H37.904ZM49.255 270.288C46.503 270.288 44.391 269.285 42.919 267.28C41.4683 265.275 40.743 262.373 40.743 258.576C40.743 254.821 41.4683 251.952 42.919 249.968C44.391 247.984 46.503 246.992 49.255 246.992C52.007 246.992 54.1083 247.984 55.559 249.968C57.031 251.952 57.767 254.821 57.767 258.576C57.767 262.373 57.031 265.275 55.559 267.28C54.1083 269.285 52.007 270.288 49.255 270.288ZM49.255 266.448C50.5137 266.448 51.431 265.829 52.007 264.592C52.583 263.355 52.871 261.349 52.871 258.576C52.871 255.867 52.583 253.904 52.007 252.688C51.431 251.451 50.5137 250.832 49.255 250.832C47.9963 250.832 47.079 251.451 46.503 252.688C45.927 253.904 45.639 255.867 45.639 258.576C45.639 261.349 45.927 263.355 46.503 264.592C47.079 265.829 47.9963 266.448 49.255 266.448ZM68.6025 270.288C65.8505 270.288 63.7385 269.285 62.2665 267.28C60.8158 265.275 60.0905 262.373 60.0905 258.576C60.0905 254.821 60.8158 251.952 62.2665 249.968C63.7385 247.984 65.8505 246.992 68.6025 246.992C71.3545 246.992 73.4558 247.984 74.9065 249.968C76.3785 251.952 77.1145 254.821 77.1145 258.576C77.1145 262.373 76.3785 265.275 74.9065 267.28C73.4558 269.285 71.3545 270.288 68.6025 270.288ZM68.6025 266.448C69.8612 266.448 70.7785 265.829 71.3545 264.592C71.9305 263.355 72.2185 261.349 72.2185 258.576C72.2185 255.867 71.9305 253.904 71.3545 252.688C70.7785 251.451 69.8612 250.832 68.6025 250.832C67.3438 250.832 66.4265 251.451 65.8505 252.688C65.2745 253.904 64.9865 255.867 64.9865 258.576C64.9865 261.349 65.2745 263.355 65.8505 264.592C66.4265 265.829 67.3438 266.448 68.6025 266.448ZM87.95 270.288C85.198 270.288 83.086 269.285 81.614 267.28C80.1633 265.275 79.438 262.373 79.438 258.576C79.438 254.821 80.1633 251.952 81.614 249.968C83.086 247.984 85.198 246.992 87.95 246.992C90.702 246.992 92.8033 247.984 94.254 249.968C95.726 251.952 96.462 254.821 96.462 258.576C96.462 262.373 95.726 265.275 94.254 267.28C92.8033 269.285 90.702 270.288 87.95 270.288ZM87.95 266.448C89.2087 266.448 90.126 265.829 90.702 264.592C91.278 263.355 91.566 261.349 91.566 258.576C91.566 255.867 91.278 253.904 90.702 252.688C90.126 251.451 89.2087 250.832 87.95 250.832C86.6913 250.832 85.774 251.451 85.198 252.688C84.622 253.904 84.334 255.867 84.334 258.576C84.334 261.349 84.622 263.355 85.198 264.592C85.774 265.829 86.6913 266.448 87.95 266.448Z" fill="#2E6DE5"/>
</g>
<g filter="url(#filter2_d_3370_16852)">
<rect x="916" y="122" width="328" height="226" rx="20" fill="white"/>
<path d="M949.848 155.912H957.264C959.104 155.912 960.536 156.36 961.56 157.256C962.584 158.136 963.096 159.344 963.096 160.88C963.096 162.416 962.576 163.632 961.536 164.528C960.512 165.424 959.088 165.872 957.264 165.872H952.944V173H949.848V155.912ZM956.904 163.472C957.976 163.472 958.784 163.256 959.328 162.824C959.888 162.376 960.168 161.736 960.168 160.904C960.168 160.056 959.896 159.416 959.352 158.984C958.808 158.536 957.992 158.312 956.904 158.312H952.944V163.472H956.904ZM965.736 160.88H968.712V173H965.736V160.88ZM968.88 155.384V158.336H965.544V155.384H968.88ZM972.114 155.336H975.09V173H972.114V155.336ZM978.492 155.336H981.468V173H978.492V155.336ZM996.462 160.88V173H993.51V171.056C993.142 171.728 992.614 172.256 991.926 172.64C991.238 173.008 990.454 173.192 989.574 173.192C988.518 173.192 987.582 172.936 986.766 172.424C985.95 171.912 985.318 171.184 984.87 170.24C984.422 169.296 984.198 168.2 984.198 166.952C984.198 165.704 984.422 164.6 984.87 163.64C985.334 162.664 985.974 161.912 986.79 161.384C987.606 160.84 988.534 160.568 989.574 160.568C990.454 160.568 991.238 160.76 991.926 161.144C992.614 161.512 993.142 162.032 993.51 162.704V160.88H996.462ZM990.39 170.84C991.382 170.84 992.15 170.496 992.694 169.808C993.238 169.12 993.51 168.152 993.51 166.904C993.51 165.624 993.238 164.64 992.694 163.952C992.15 163.264 991.374 162.92 990.366 162.92C989.374 162.92 988.598 163.28 988.038 164C987.494 164.704 987.222 165.688 987.222 166.952C987.222 168.2 987.494 169.16 988.038 169.832C988.598 170.504 989.382 170.84 990.39 170.84ZM1006.38 160.592C1006.84 160.592 1007.24 160.656 1007.58 160.784L1007.55 163.52C1007.04 163.312 1006.51 163.208 1005.97 163.208C1004.95 163.208 1004.16 163.504 1003.62 164.096C1003.09 164.688 1002.83 165.472 1002.83 166.448V173H999.849V164.312C999.849 163.032 999.785 161.888 999.657 160.88H1002.47L1002.71 163.016C1003.01 162.232 1003.49 161.632 1004.15 161.216C1004.8 160.8 1005.55 160.592 1006.38 160.592Z" fill="#333333"/>
<rect x="948" y="271" width="126" height="54" rx="12" fill="#F4F5FC"/>
<rect x="1086" y="271" width="126" height="54" rx="12" fill="#F4F5FC"/>
<rect x="1025" y="282" width="32" height="32" rx="8" fill="#FFE8EA"/>
<path d="M1045.2 299.527C1044.94 299.267 1044.52 299.267 1044.26 299.527L1041.67 302.113V292C1041.67 291.633 1041.37 291.333 1041 291.333C1040.63 291.333 1040.33 291.633 1040.33 292V302.12L1037.75 299.533C1037.49 299.273 1037.07 299.273 1036.81 299.533C1036.55 299.793 1036.55 300.213 1036.81 300.473L1040.53 304.2C1040.79 304.46 1041.21 304.46 1041.47 304.2L1045.2 300.473C1045.45 300.213 1045.45 299.787 1045.2 299.527Z" fill="#FF566A"/>
<rect x="1163" y="282" width="32" height="32" rx="8" fill="#FFE8EA"/>
<path d="M1183.2 299.527C1182.94 299.267 1182.52 299.267 1182.26 299.527L1179.67 302.113V292C1179.67 291.633 1179.37 291.333 1179 291.333C1178.63 291.333 1178.33 291.633 1178.33 292V302.12L1175.75 299.533C1175.49 299.273 1175.07 299.273 1174.81 299.533C1174.55 299.793 1174.55 300.213 1174.81 300.473L1178.53 304.2C1178.79 304.46 1179.21 304.46 1179.47 304.2L1183.2 300.473C1183.45 300.213 1183.45 299.787 1183.2 299.527Z" fill="#FF566A"/>
<rect x="948" y="205" width="126" height="54" rx="12" fill="#F4F5FC"/>
<rect x="1086" y="205" width="126" height="54" rx="12" fill="#F4F5FC"/>
<rect x="1025" y="216" width="32" height="32" rx="8" fill="#DDF6DD"/>
<path d="M1036.81 230.467C1037.07 230.727 1037.49 230.727 1037.75 230.467L1040.33 227.887V238C1040.33 238.367 1040.63 238.667 1041 238.667C1041.37 238.667 1041.67 238.367 1041.67 238V227.887L1044.25 230.473C1044.51 230.733 1044.93 230.733 1045.19 230.473C1045.45 230.213 1045.45 229.793 1045.19 229.533L1041.47 225.8C1041.21 225.54 1040.79 225.54 1040.53 225.8L1036.81 229.527C1036.55 229.787 1036.55 230.213 1036.81 230.467Z" fill="#23A665"/>
<path d="M976.152 228.608V240H974.104V235.056H968.264V240H966.232V228.608H968.264V233.376H974.104V228.608H976.152ZM978.559 231.92H980.543V240H978.559V231.92ZM980.655 228.256V230.224H978.431V228.256H980.655ZM990.619 231.92V239.744C990.619 241.003 990.272 241.957 989.579 242.608C988.885 243.259 987.867 243.584 986.523 243.584C985.275 243.584 984.176 243.323 983.226 242.8L983.546 241.28C984.528 241.792 985.504 242.048 986.475 242.048C987.915 242.048 988.635 241.333 988.635 239.904V238.304C988.389 238.741 988.032 239.099 987.562 239.376C987.093 239.643 986.565 239.776 985.978 239.776C985.274 239.776 984.645 239.611 984.09 239.28C983.546 238.939 983.12 238.464 982.81 237.856C982.512 237.237 982.362 236.533 982.362 235.744C982.362 234.955 982.512 234.256 982.81 233.648C983.12 233.029 983.546 232.555 984.09 232.224C984.645 231.883 985.274 231.712 985.978 231.712C986.576 231.712 987.104 231.84 987.562 232.096C988.032 232.341 988.389 232.688 988.635 233.136V231.92H990.619ZM986.507 238.208C987.168 238.208 987.685 237.989 988.059 237.552C988.443 237.115 988.635 236.512 988.635 235.744C988.635 234.976 988.448 234.373 988.075 233.936C987.701 233.499 987.179 233.28 986.507 233.28C985.845 233.28 985.323 233.499 984.938 233.936C984.565 234.373 984.378 234.976 984.378 235.744C984.378 236.512 984.565 237.115 984.938 237.552C985.323 237.989 985.845 238.208 986.507 238.208ZM997.483 231.712C999.414 231.712 1000.38 232.821 1000.38 235.04V240H998.379V235.136C998.379 234.496 998.257 234.032 998.011 233.744C997.766 233.445 997.387 233.296 996.875 233.296C996.267 233.296 995.777 233.493 995.403 233.888C995.03 234.272 994.843 234.784 994.843 235.424V240H992.859V228.224H994.843V233.088C995.121 232.651 995.489 232.315 995.947 232.08C996.406 231.835 996.918 231.712 997.483 231.712Z" fill="#333333"/>
<path d="M966.232 294.608H968.296V304.304H973.624V306H966.232V294.608ZM978.738 306.128C977.917 306.128 977.192 305.957 976.562 305.616C975.944 305.275 975.464 304.789 975.122 304.16C974.792 303.52 974.626 302.773 974.626 301.92C974.626 301.067 974.792 300.325 975.122 299.696C975.464 299.056 975.944 298.565 976.562 298.224C977.192 297.883 977.917 297.712 978.738 297.712C979.549 297.712 980.264 297.883 980.882 298.224C981.501 298.565 981.976 299.056 982.306 299.696C982.648 300.325 982.818 301.067 982.818 301.92C982.818 302.773 982.648 303.52 982.306 304.16C981.976 304.789 981.501 305.275 980.882 305.616C980.264 305.957 979.549 306.128 978.738 306.128ZM978.722 304.56C979.405 304.56 979.922 304.341 980.274 303.904C980.637 303.456 980.818 302.795 980.818 301.92C980.818 301.056 980.637 300.4 980.274 299.952C979.912 299.493 979.4 299.264 978.738 299.264C978.066 299.264 977.549 299.493 977.186 299.952C976.824 300.4 976.642 301.056 976.642 301.92C976.642 302.795 976.818 303.456 977.17 303.904C977.533 304.341 978.05 304.56 978.722 304.56ZM997.346 297.92L994.178 306H992.434L990.434 300.704L988.482 306H986.722L983.554 297.92H985.602L987.682 303.616L989.778 297.92H991.218L993.314 303.664L995.394 297.92H997.346Z" fill="#333333"/>
<rect x="1163" y="216" width="32" height="32" rx="8" fill="#DDF6DD"/>
<path d="M1174.81 230.467C1175.07 230.727 1175.49 230.727 1175.75 230.467L1178.33 227.887V238C1178.33 238.367 1178.63 238.667 1179 238.667C1179.37 238.667 1179.67 238.367 1179.67 238V227.887L1182.25 230.473C1182.51 230.733 1182.93 230.733 1183.19 230.473C1183.45 230.213 1183.45 229.793 1183.19 229.533L1179.47 225.8C1179.21 225.54 1178.79 225.54 1178.53 225.8L1174.81 229.527C1174.55 229.787 1174.55 230.213 1174.81 230.467Z" fill="#23A665"/>
<path d="M1114.15 228.608V240H1112.1V235.056H1106.26V240H1104.23V228.608H1106.26V233.376H1112.1V228.608H1114.15ZM1116.56 231.92H1118.54V240H1116.56V231.92ZM1118.65 228.256V230.224H1116.43V228.256H1118.65ZM1128.62 231.92V239.744C1128.62 241.003 1128.27 241.957 1127.58 242.608C1126.89 243.259 1125.87 243.584 1124.52 243.584C1123.27 243.584 1122.18 243.323 1121.23 242.8L1121.55 241.28C1122.53 241.792 1123.5 242.048 1124.47 242.048C1125.91 242.048 1126.63 241.333 1126.63 239.904V238.304C1126.39 238.741 1126.03 239.099 1125.56 239.376C1125.09 239.643 1124.57 239.776 1123.98 239.776C1123.27 239.776 1122.65 239.611 1122.09 239.28C1121.55 238.939 1121.12 238.464 1120.81 237.856C1120.51 237.237 1120.36 236.533 1120.36 235.744C1120.36 234.955 1120.51 234.256 1120.81 233.648C1121.12 233.029 1121.55 232.555 1122.09 232.224C1122.65 231.883 1123.27 231.712 1123.98 231.712C1124.58 231.712 1125.1 231.84 1125.56 232.096C1126.03 232.341 1126.39 232.688 1126.63 233.136V231.92H1128.62ZM1124.51 238.208C1125.17 238.208 1125.69 237.989 1126.06 237.552C1126.44 237.115 1126.63 236.512 1126.63 235.744C1126.63 234.976 1126.45 234.373 1126.07 233.936C1125.7 233.499 1125.18 233.28 1124.51 233.28C1123.85 233.28 1123.32 233.499 1122.94 233.936C1122.57 234.373 1122.38 234.976 1122.38 235.744C1122.38 236.512 1122.57 237.115 1122.94 237.552C1123.32 237.989 1123.85 238.208 1124.51 238.208ZM1135.48 231.712C1137.41 231.712 1138.38 232.821 1138.38 235.04V240H1136.38V235.136C1136.38 234.496 1136.26 234.032 1136.01 233.744C1135.77 233.445 1135.39 233.296 1134.88 233.296C1134.27 233.296 1133.78 233.493 1133.4 233.888C1133.03 234.272 1132.84 234.784 1132.84 235.424V240H1130.86V228.224H1132.84V233.088C1133.12 232.651 1133.49 232.315 1133.95 232.08C1134.41 231.835 1134.92 231.712 1135.48 231.712Z" fill="#333333"/>
<path d="M1104.23 294.608H1106.3V304.304H1111.62V306H1104.23V294.608ZM1116.74 306.128C1115.92 306.128 1115.19 305.957 1114.56 305.616C1113.94 305.275 1113.46 304.789 1113.12 304.16C1112.79 303.52 1112.63 302.773 1112.63 301.92C1112.63 301.067 1112.79 300.325 1113.12 299.696C1113.46 299.056 1113.94 298.565 1114.56 298.224C1115.19 297.883 1115.92 297.712 1116.74 297.712C1117.55 297.712 1118.26 297.883 1118.88 298.224C1119.5 298.565 1119.98 299.056 1120.31 299.696C1120.65 300.325 1120.82 301.067 1120.82 301.92C1120.82 302.773 1120.65 303.52 1120.31 304.16C1119.98 304.789 1119.5 305.275 1118.88 305.616C1118.26 305.957 1117.55 306.128 1116.74 306.128ZM1116.72 304.56C1117.4 304.56 1117.92 304.341 1118.27 303.904C1118.64 303.456 1118.82 302.795 1118.82 301.92C1118.82 301.056 1118.64 300.4 1118.27 299.952C1117.91 299.493 1117.4 299.264 1116.74 299.264C1116.07 299.264 1115.55 299.493 1115.19 299.952C1114.82 300.4 1114.64 301.056 1114.64 301.92C1114.64 302.795 1114.82 303.456 1115.17 303.904C1115.53 304.341 1116.05 304.56 1116.72 304.56ZM1135.35 297.92L1132.18 306H1130.43L1128.43 300.704L1126.48 306H1124.72L1121.55 297.92H1123.6L1125.68 303.616L1127.78 297.92H1129.22L1131.31 303.664L1133.39 297.92H1135.35Z" fill="#333333"/>
</g>
<g filter="url(#filter3_d_3370_16852)">
<rect x="556" y="60" width="328" height="328" rx="20" fill="white"/>
<path d="M717.427 344.96V350H694.483V345.44L706.099 332.912C707.475 331.408 708.483 330.032 709.123 328.784C709.763 327.536 710.083 326.304 710.083 325.088C710.083 323.52 709.619 322.336 708.691 321.536C707.795 320.736 706.499 320.336 704.803 320.336C701.795 320.336 698.707 321.52 695.539 323.888L693.475 319.376C694.819 318.16 696.547 317.2 698.659 316.496C700.771 315.76 702.899 315.392 705.043 315.392C708.467 315.392 711.171 316.24 713.155 317.936C715.171 319.6 716.179 321.856 716.179 324.704C716.179 326.656 715.747 328.496 714.883 330.224C714.051 331.952 712.643 333.888 710.659 336.032L702.259 344.96H717.427ZM734.543 350.432C730.479 350.432 727.375 348.944 725.231 345.968C723.119 342.96 722.063 338.592 722.063 332.864C722.063 327.232 723.119 322.928 725.231 319.952C727.375 316.976 730.479 315.488 734.543 315.488C738.607 315.488 741.695 316.976 743.807 319.952C745.951 322.896 747.023 327.2 747.023 332.864C747.023 338.56 745.951 342.912 743.807 345.92C741.695 348.928 738.607 350.432 734.543 350.432ZM734.543 345.584C736.751 345.584 738.351 344.576 739.343 342.56C740.367 340.512 740.879 337.28 740.879 332.864C740.879 328.512 740.367 325.344 739.343 323.36C738.351 321.344 736.751 320.336 734.543 320.336C732.335 320.336 730.719 321.344 729.695 323.36C728.703 325.344 728.207 328.512 728.207 332.864C728.207 337.28 728.703 340.512 729.695 342.56C730.719 344.576 732.335 345.584 734.543 345.584Z" fill="#333333"/>
<path d="M724.066 254.694C723.589 256.178 719.403 265.026 717.947 264.493L664.755 237.342C663.315 236.851 662.516 235.195 662.993 233.711C663.47 232.227 665.077 231.404 666.517 231.896L724.885 243.038C726.381 243.555 724.584 253.194 724.066 254.694Z" fill="#23A665"/>
<path d="M742.213 231.989C730.493 219.912 711.493 219.912 699.774 231.989C688.055 244.067 688.055 263.647 699.774 275.725C711.493 287.802 730.493 287.802 742.213 275.725C753.932 263.647 753.932 244.067 742.213 231.989Z" fill="#F5F5F5"/>
<path d="M729.647 244.938C724.868 240.013 717.119 240.013 712.339 244.938C707.56 249.864 707.56 257.849 712.339 262.775C717.119 267.701 724.868 267.701 729.647 262.775C734.427 257.849 734.427 249.864 729.647 244.938Z" fill="#23A665"/>
<path d="M720.043 130.477C720 130.477 720 130.477 720.043 130.477C651.054 130.477 595 188.244 595 259.296C595 259.341 595 259.431 595 259.476H627.709C627.709 259.431 627.709 259.341 627.709 259.296C627.709 206.871 669.085 164.186 720 164.186C720 164.186 720 164.186 720.043 164.186V130.477Z" fill="#23A665"/>
<path d="M720 130.477C686.377 130.477 655.802 144.257 633.284 166.565L655.932 190.847C672.526 174.33 695.131 164.141 719.957 164.141C719.957 164.141 719.957 164.141 720 164.141V130.477Z" fill="#FFE03E"/>
<path d="M719.957 130.477C720.001 130.477 720.001 130.477 719.957 130.477C788.947 130.477 845 188.244 845 259.296C845 259.341 845 259.431 845 259.476H812.291C812.291 259.431 812.291 259.341 812.291 259.296C812.291 206.871 770.915 164.186 720.001 164.186C720.001 164.186 720.001 164.186 719.957 164.186V130.477Z" fill="#FF566A"/>
<path d="M720 130.477C753.624 130.477 784.199 144.257 806.716 166.565L784.068 190.847C767.474 174.33 744.869 164.141 720.044 164.141C720.044 164.141 720.044 164.141 720 164.141V130.477Z" fill="#FFB23E"/>
<path d="M595.632 111.216C594.32 111.216 593.088 111.04 591.936 110.688C590.8 110.336 589.832 109.832 589.032 109.176L590.088 106.92C590.92 107.544 591.784 108.008 592.68 108.312C593.592 108.6 594.584 108.744 595.656 108.744C596.84 108.744 597.752 108.536 598.392 108.12C599.048 107.704 599.376 107.12 599.376 106.368C599.376 105.728 599.072 105.24 598.464 104.904C597.872 104.552 596.888 104.224 595.512 103.92C593.368 103.456 591.808 102.856 590.832 102.12C589.856 101.384 589.368 100.312 589.368 98.904C589.368 97.896 589.64 97 590.184 96.216C590.728 95.432 591.496 94.816 592.488 94.368C593.496 93.92 594.656 93.696 595.968 93.696C597.168 93.696 598.304 93.88 599.376 94.248C600.464 94.6 601.352 95.096 602.04 95.736L601.008 97.992C599.488 96.776 597.808 96.168 595.968 96.168C594.864 96.168 593.992 96.4 593.352 96.864C592.712 97.312 592.392 97.928 592.392 98.712C592.392 99.384 592.672 99.896 593.232 100.248C593.808 100.6 594.784 100.928 596.16 101.232C597.584 101.568 598.744 101.936 599.64 102.336C600.536 102.72 601.224 103.224 601.704 103.848C602.184 104.456 602.424 105.224 602.424 106.152C602.424 107.176 602.152 108.072 601.608 108.84C601.064 109.592 600.28 110.176 599.256 110.592C598.232 111.008 597.024 111.216 595.632 111.216ZM610.693 111.192C609.429 111.192 608.333 110.936 607.405 110.424C606.477 109.912 605.765 109.192 605.269 108.264C604.773 107.32 604.525 106.216 604.525 104.952C604.525 103.688 604.781 102.576 605.293 101.616C605.821 100.656 606.557 99.912 607.501 99.384C608.461 98.84 609.565 98.568 610.813 98.568C611.677 98.568 612.509 98.704 613.309 98.976C614.125 99.248 614.773 99.624 615.253 100.104L614.413 102.216C613.901 101.8 613.357 101.488 612.781 101.28C612.205 101.056 611.637 100.944 611.077 100.944C609.989 100.944 609.141 101.288 608.533 101.976C607.925 102.648 607.621 103.624 607.621 104.904C607.621 106.184 607.917 107.16 608.509 107.832C609.117 108.504 609.973 108.84 611.077 108.84C611.637 108.84 612.205 108.728 612.781 108.504C613.357 108.28 613.901 107.96 614.413 107.544L615.253 109.656C614.741 110.136 614.077 110.512 613.261 110.784C612.445 111.056 611.589 111.192 610.693 111.192ZM622.884 111.192C621.652 111.192 620.564 110.936 619.62 110.424C618.692 109.912 617.972 109.184 617.46 108.24C616.964 107.28 616.716 106.16 616.716 104.88C616.716 103.6 616.964 102.488 617.46 101.544C617.972 100.584 618.692 99.848 619.62 99.336C620.564 98.824 621.652 98.568 622.884 98.568C624.1 98.568 625.172 98.824 626.1 99.336C627.028 99.848 627.74 100.584 628.236 101.544C628.748 102.488 629.004 103.6 629.004 104.88C629.004 106.16 628.748 107.28 628.236 108.24C627.74 109.184 627.028 109.912 626.1 110.424C625.172 110.936 624.1 111.192 622.884 111.192ZM622.86 108.84C623.884 108.84 624.66 108.512 625.188 107.856C625.732 107.184 626.004 106.192 626.004 104.88C626.004 103.584 625.732 102.6 625.188 101.928C624.644 101.24 623.876 100.896 622.884 100.896C621.876 100.896 621.1 101.24 620.556 101.928C620.012 102.6 619.74 103.584 619.74 104.88C619.74 106.192 620.004 107.184 620.532 107.856C621.076 108.512 621.852 108.84 622.86 108.84ZM638.239 98.592C638.703 98.592 639.103 98.656 639.439 98.784L639.415 101.52C638.903 101.312 638.375 101.208 637.831 101.208C636.807 101.208 636.023 101.504 635.479 102.096C634.951 102.688 634.687 103.472 634.687 104.448V111H631.711V102.312C631.711 101.032 631.647 99.888 631.519 98.88H634.327L634.567 101.016C634.871 100.232 635.351 99.632 636.007 99.216C636.663 98.8 637.407 98.592 638.239 98.592ZM651.603 105.096H643.251C643.315 106.392 643.635 107.352 644.211 107.976C644.803 108.584 645.675 108.888 646.827 108.888C648.155 108.888 649.387 108.456 650.523 107.592L651.387 109.656C650.811 110.12 650.099 110.496 649.251 110.784C648.419 111.056 647.571 111.192 646.707 111.192C644.723 111.192 643.163 110.632 642.027 109.512C640.891 108.392 640.323 106.856 640.323 104.904C640.323 103.672 640.571 102.576 641.067 101.616C641.563 100.656 642.259 99.912 643.155 99.384C644.051 98.84 645.067 98.568 646.203 98.568C647.867 98.568 649.179 99.112 650.139 100.2C651.115 101.272 651.603 102.752 651.603 104.64V105.096ZM646.275 100.728C645.475 100.728 644.819 100.968 644.307 101.448C643.811 101.912 643.491 102.592 643.347 103.488H648.987C648.891 102.576 648.611 101.888 648.147 101.424C647.699 100.96 647.075 100.728 646.275 100.728Z" fill="#333333"/>
</g>
<g filter="url(#filter4_d_3370_16852)">
<rect x="196" y="10" width="328" height="274" rx="20" fill="white"/>
<rect x="238" y="93" width="1" height="151" fill="#EFEFEF"/>
<rect x="299" y="93" width="1" height="151" fill="#EFEFEF"/>
<rect x="360" y="93" width="1" height="151" fill="#EFEFEF"/>
<rect x="421" y="93" width="1" height="151" fill="#EFEFEF"/>
<rect x="482" y="93" width="1" height="151" fill="#EFEFEF"/>
<path d="M249.596 51.76V59.968C248.812 60.352 247.868 60.656 246.764 60.88C245.66 61.104 244.532 61.216 243.38 61.216C241.62 61.216 240.092 60.864 238.796 60.16C237.5 59.456 236.508 58.448 235.82 57.136C235.132 55.824 234.788 54.256 234.788 52.432C234.788 50.64 235.132 49.088 235.82 47.776C236.508 46.464 237.484 45.456 238.748 44.752C240.028 44.048 241.524 43.696 243.236 43.696C244.436 43.696 245.556 43.872 246.596 44.224C247.652 44.576 248.532 45.072 249.236 45.712L248.18 47.968C247.38 47.344 246.596 46.896 245.828 46.624C245.06 46.352 244.22 46.216 243.308 46.216C241.548 46.216 240.212 46.744 239.3 47.8C238.404 48.856 237.956 50.4 237.956 52.432C237.956 54.528 238.42 56.112 239.348 57.184C240.276 58.24 241.66 58.768 243.5 58.768C244.62 58.768 245.724 58.616 246.812 58.312V53.992H243.116V51.76H249.596ZM259.514 48.592C259.978 48.592 260.378 48.656 260.714 48.784L260.69 51.52C260.178 51.312 259.65 51.208 259.106 51.208C258.082 51.208 257.298 51.504 256.754 52.096C256.226 52.688 255.962 53.472 255.962 54.448V61H252.986V52.312C252.986 51.032 252.922 49.888 252.794 48.88H255.602L255.842 51.016C256.146 50.232 256.626 49.632 257.282 49.216C257.938 48.8 258.682 48.592 259.514 48.592ZM273.862 48.88V61H270.91V59.056C270.542 59.728 270.014 60.256 269.326 60.64C268.638 61.008 267.854 61.192 266.974 61.192C265.918 61.192 264.982 60.936 264.166 60.424C263.35 59.912 262.718 59.184 262.27 58.24C261.822 57.296 261.598 56.2 261.598 54.952C261.598 53.704 261.822 52.6 262.27 51.64C262.734 50.664 263.374 49.912 264.19 49.384C265.006 48.84 265.934 48.568 266.974 48.568C267.854 48.568 268.638 48.76 269.326 49.144C270.014 49.512 270.542 50.032 270.91 50.704V48.88H273.862ZM267.79 58.84C268.782 58.84 269.55 58.496 270.094 57.808C270.638 57.12 270.91 56.152 270.91 54.904C270.91 53.624 270.638 52.64 270.094 51.952C269.55 51.264 268.774 50.92 267.766 50.92C266.774 50.92 265.998 51.28 265.438 52C264.894 52.704 264.622 53.688 264.622 54.952C264.622 56.2 264.894 57.16 265.438 57.832C265.998 58.504 266.782 58.84 267.79 58.84ZM288.841 43.336V61H285.889V59.056C285.521 59.728 284.993 60.256 284.305 60.64C283.617 61.008 282.833 61.192 281.953 61.192C280.913 61.192 279.985 60.928 279.169 60.4C278.353 59.872 277.713 59.128 277.249 58.168C276.801 57.192 276.577 56.08 276.577 54.832C276.577 53.584 276.801 52.488 277.249 51.544C277.697 50.6 278.329 49.872 279.145 49.36C279.961 48.832 280.897 48.568 281.953 48.568C282.817 48.568 283.585 48.752 284.257 49.12C284.945 49.472 285.473 49.976 285.841 50.632V43.336H288.841ZM282.745 58.84C283.737 58.84 284.505 58.496 285.049 57.808C285.609 57.12 285.889 56.144 285.889 54.88C285.889 53.616 285.617 52.64 285.073 51.952C284.529 51.264 283.761 50.92 282.769 50.92C281.761 50.92 280.977 51.264 280.417 51.952C279.873 52.624 279.601 53.584 279.601 54.832C279.601 56.096 279.873 57.08 280.417 57.784C280.977 58.488 281.753 58.84 282.745 58.84ZM292.229 48.88H295.205V61H292.229V48.88ZM295.373 43.384V46.336H292.037V43.384H295.373ZM305.542 48.568C308.438 48.568 309.886 50.232 309.886 53.56V61H306.886V53.704C306.886 52.744 306.702 52.048 306.334 51.616C305.966 51.168 305.398 50.944 304.63 50.944C303.718 50.944 302.982 51.24 302.422 51.832C301.862 52.408 301.582 53.176 301.582 54.136V61H298.606V52.312C298.606 51.032 298.542 49.888 298.414 48.88H301.222L301.438 50.872C301.854 50.136 302.414 49.568 303.118 49.168C303.838 48.768 304.646 48.568 305.542 48.568ZM324.899 48.88V60.616C324.899 62.504 324.379 63.936 323.339 64.912C322.299 65.888 320.771 66.376 318.755 66.376C316.883 66.376 315.235 65.984 313.811 65.2L314.291 62.92C315.763 63.688 317.227 64.072 318.683 64.072C320.843 64.072 321.923 63 321.923 60.856V58.456C321.555 59.112 321.019 59.648 320.315 60.064C319.611 60.464 318.819 60.664 317.939 60.664C316.883 60.664 315.939 60.416 315.107 59.92C314.291 59.408 313.651 58.696 313.187 57.784C312.739 56.856 312.515 55.8 312.515 54.616C312.515 53.432 312.739 52.384 313.187 51.472C313.651 50.544 314.291 49.832 315.107 49.336C315.939 48.824 316.883 48.568 317.939 48.568C318.835 48.568 319.627 48.76 320.315 49.144C321.019 49.512 321.555 50.032 321.923 50.704V48.88H324.899ZM318.731 58.312C319.723 58.312 320.499 57.984 321.059 57.328C321.635 56.672 321.923 55.768 321.923 54.616C321.923 53.464 321.643 52.56 321.083 51.904C320.523 51.248 319.739 50.92 318.731 50.92C317.739 50.92 316.955 51.248 316.379 51.904C315.819 52.56 315.539 53.464 315.539 54.616C315.539 55.768 315.819 56.672 316.379 57.328C316.955 57.984 317.739 58.312 318.731 58.312Z" fill="#333333"/>
<rect x="343" y="103" width="152" height="24" rx="12" fill="#F8F8FE"/>
<rect x="226" y="155" width="146" height="24" rx="12" fill="#D8114A"/>
<rect x="261" y="207" width="82" height="24" rx="12" fill="#F8F8FE"/>
<rect x="380" y="207" width="115" height="24" rx="12" fill="#2E6DE5"/>
</g>
<defs>
<filter id="filter0_d_3370_16852" x="1216" y="0" width="448" height="394" filterUnits="userSpaceOnUse" color-interpolation-filters="sRGB">
<feFlood flood-opacity="0" result="BackgroundImageFix"/>
<feColorMatrix in="SourceAlpha" type="matrix" values="0 0 0 0 0 0 0 0 0 0 0 0 0 0 0 0 0 0 127 0" result="hardAlpha"/>
<feOffset dy="50"/>
<feGaussianBlur stdDeviation="30"/>
<feComposite in2="hardAlpha" operator="out"/>
<feColorMatrix type="matrix" values="0 0 0 0 0.917647 0 0 0 0 0.917647 0 0 0 0 0.960784 0 0 0 0.4 0"/>
<feBlend mode="normal" in2="BackgroundImageFix" result="effect1_dropShadow_3370_16852"/>
<feBlend mode="normal" in="SourceGraphic" in2="effect1_dropShadow_3370_16852" result="shape"/>
</filter>
<filter id="filter1_d_3370_16852" x="-224" y="112" width="448" height="346" filterUnits="userSpaceOnUse" color-interpolation-filters="sRGB">
<feFlood flood-opacity="0" result="BackgroundImageFix"/>
<feColorMatrix in="SourceAlpha" type="matrix" values="0 0 0 0 0 0 0 0 0 0 0 0 0 0 0 0 0 0 127 0" result="hardAlpha"/>
<feOffset dy="50"/>
<feGaussianBlur stdDeviation="30"/>
<feComposite in2="hardAlpha" operator="out"/>
<feColorMatrix type="matrix" values="0 0 0 0 0.917647 0 0 0 0 0.917647 0 0 0 0 0.960784 0 0 0 0.4 0"/>
<feBlend mode="normal" in2="BackgroundImageFix" result="effect1_dropShadow_3370_16852"/>
<feBlend mode="normal" in="SourceGraphic" in2="effect1_dropShadow_3370_16852" result="shape"/>
</filter>
<filter id="filter2_d_3370_16852" x="856" y="112" width="448" height="346" filterUnits="userSpaceOnUse" color-interpolation-filters="sRGB">
<feFlood flood-opacity="0" result="BackgroundImageFix"/>
<feColorMatrix in="SourceAlpha" type="matrix" values="0 0 0 0 0 0 0 0 0 0 0 0 0 0 0 0 0 0 127 0" result="hardAlpha"/>
<feOffset dy="50"/>
<feGaussianBlur stdDeviation="30"/>
<feComposite in2="hardAlpha" operator="out"/>
<feColorMatrix type="matrix" values="0 0 0 0 0.918385 0 0 0 0 0.918385 0 0 0 0 0.9625 0 0 0 0.4 0"/>
<feBlend mode="normal" in2="BackgroundImageFix" result="effect1_dropShadow_3370_16852"/>
<feBlend mode="normal" in="SourceGraphic" in2="effect1_dropShadow_3370_16852" result="shape"/>
</filter>
<filter id="filter3_d_3370_16852" x="496" y="50" width="448" height="448" filterUnits="userSpaceOnUse" color-interpolation-filters="sRGB">
<feFlood flood-opacity="0" result="BackgroundImageFix"/>
<feColorMatrix in="SourceAlpha" type="matrix" values="0 0 0 0 0 0 0 0 0 0 0 0 0 0 0 0 0 0 127 0" result="hardAlpha"/>
<feOffset dy="50"/>
<feGaussianBlur stdDeviation="30"/>
<feComposite in2="hardAlpha" operator="out"/>
<feColorMatrix type="matrix" values="0 0 0 0 0.917647 0 0 0 0 0.917647 0 0 0 0 0.960784 0 0 0 0.4 0"/>
<feBlend mode="normal" in2="BackgroundImageFix" result="effect1_dropShadow_3370_16852"/>
<feBlend mode="normal" in="SourceGraphic" in2="effect1_dropShadow_3370_16852" result="shape"/>
</filter>
<filter id="filter4_d_3370_16852" x="136" y="0" width="448" height="394" filterUnits="userSpaceOnUse" color-interpolation-filters="sRGB">
<feFlood flood-opacity="0" result="BackgroundImageFix"/>
<feColorMatrix in="SourceAlpha" type="matrix" values="0 0 0 0 0 0 0 0 0 0 0 0 0 0 0 0 0 0 127 0" result="hardAlpha"/>
<feOffset dy="50"/>
<feGaussianBlur stdDeviation="30"/>
<feComposite in2="hardAlpha" operator="out"/>
<feColorMatrix type="matrix" values="0 0 0 0 0.918385 0 0 0 0 0.918385 0 0 0 0 0.9625 0 0 0 0.4 0"/>
<feBlend mode="normal" in2="BackgroundImageFix" result="effect1_dropShadow_3370_16852"/>
<feBlend mode="normal" in="SourceGraphic" in2="effect1_dropShadow_3370_16852" result="shape"/>
</filter>
</defs>
</svg>
